<?xml version="1.0" encoding="utf-8"?>
<!-- Generator: Adobe Illustrator 21.0.2, SVG Export Plug-In . SVG Version: 6.00 Build 0)  -->
<svg version="1.1" id="Layer_1" xmlns="http://www.w3.org/2000/svg" xmlns:xlink="http://www.w3.org/1999/xlink" x="0px" y="0px"
	 viewBox="0 0 780 839" style="enable-background:new 0 0 780 839;" xml:space="preserve">
<style type="text/css">
	.st0{clip-path:url(#SVGID_2_);}
	.st1{fill:#CC9966;stroke:#CC9966;stroke-miterlimit:10;}
	.st2{fill:#8C6239;stroke:#E6E7E8;stroke-linecap:round;stroke-miterlimit:10;}
	.st3{fill:none;stroke:#000000;stroke-miterlimit:10;}
	.st4{fill:#FF6980;stroke:#FF6980;stroke-width:2;stroke-linecap:round;stroke-miterlimit:10;}
</style>
<g>
	<defs>
		<rect id="SVGID_1_" width="780" height="839"/>
	</defs>
	<clipPath id="SVGID_2_">
		<use xlink:href="#SVGID_1_"  style="overflow:visible;"/>
	</clipPath>
	<g class="st0">
		<path class="st1" d="M-68.3,357.4c7.6-6.8,15.6-13.2,24.5-18.4c11.5-6.7,24-11.6,35.7-18c7.3-4,14.5-8.1,21.7-12.2
			c16.4-9,33.7-16.4,49.7-26.2c18.9-11.6,38.6-22.1,56.5-35.3c7.5-5.5,15.7-9.2,24.9-11.2c17.1-3.7,33.1-10.3,48.2-19.2
			c8.7-5.1,17.5-9.8,27.1-13.1c3.6-1.3,6.9-3.4,10.4-5.1c4.7-2.2,8.1-6.2,12.6-8.7c1.7-0.9,3.3-1.9,4.8,0.3c0.4,0.6,1.2,0.7,1.9,0.4
			c6.2-2.7,13-4,18.4-8.3c3.4-2.7,6.8-5.2,10.5-7.6c5.5-3.5,11.3-6,17-9c5.4-2.9,10.6-6,16.5-7.6c1.4-0.4,2.8-1,4.2-1.1
			c2.5-0.3,1.4,2.3,2.4,3.3c2.8,3.1,3,6.8,1.7,10.6c-0.7,2.3-1.7,4.5-2.6,6.8c-0.4,1-0.5,2,0.9,1.5c4.6-1.6,9.6-1,14.2-2.4
			c7.4-2.3,14.9-3,22.6-3.2c0.9,0,2.8-0.4,2.5,1c-0.7,3.1,0.5,6.1-0.5,9.2c-2.5,7.8-7.8,13.1-14.9,16.6c-4.8,2.4-10,4.1-15.1,6
			c-6.5,2.4-13.6,3.1-20.2,5.2c-7.9,2.5-15.8,5.4-23.9,7.1c-16.5,3.6-31.2,11-44.8,20.8c-0.7,0.5-2,1-1.5,2.1
			c0.5,1.2,1.7,0.5,2.6,0.4c5.3-0.4,10.6-0.8,15.9,0c4.9,0.7,9.7,1.5,14.6,1.9c7.8,0.8,15.6,0.6,23.3,2.1c3.3,0.7,6.8,1.2,10.1,0.6
			c6.9-1.3,13.9-0.2,20.8-0.8c0.8-0.1,1.8,0.1,2.5,0.5c1.4,0.9,2.9,0.9,4.5,0.7c8.1-1.2,16,0.1,23.7,2.4c1.8,0.5,2.2,1.4,1.7,3.2
			c-1.4,4.6-4.3,8-8,10.7c-10.2,7.3-22,10.1-34.2,11.2c-5,0.5-10.1-0.6-15,0c-10.8,1.4-21.6,1.7-32.3,2.4
			c-6.1,0.4-12.2,0.6-18.1,2.3c-14.5,4.2-29.3,7.2-44.2,9c-7.4,0.9-14.8,1-21.5,5.2c-2,1.3-4.7,1.4-6.7,2.6
			c-6.9,4.1-14.5,6.7-21.9,9.8c-1.3,0.5-1.9,1.5-2.1,2.5c-1.2,6-4.8,11.1-5.3,17.3c-0.2,3,0.7,4.4,3.8,3.6c3.3-0.8,6.5-1.8,9.7-2.9
			c9.8-3.3,19-8.2,28.5-12c14.4-5.7,29.4-9.6,44.5-12.9c4.3-0.9,8.7-2.2,13.1-2.1c5.1,0,10.2,0.9,13.8,5c7.2,8.1,5.7,20-3.2,26.2
			c-10.7,7.4-22.4,13.3-33.9,19.4c-3.6,1.9-7.3,3.5-11.3,4.5c-22.4,5.9-43,15.4-61.8,29c-4,2.9-7.8,6-12.1,8.5
			c-7.4,4.3-15.7,6.4-23.6,9.5c-14.8,5.8-30.3,9-45.7,13c-7.2,1.9-14.6,2.2-22.1,2.4c-10.3,0.2-20.4-3.6-31-1.1
			c-5.4,1.3-10.5,1.6-14.2,6.3C-21.4,400.6-44.9,379-68.3,357.4z M237.6,309.7c2.5,0.9,12.8-3.1,14.6-6
			C246.7,304.9,242.1,306.9,237.6,309.7z"/>
	</g>
	<g class="st0">
		<g>
			<path class="st2" d="M759.8,583.4c0,140.8-103.6,254.9-231.4,254.9S297,724.2,297,583.4c0-127.5,114.3-254.9,231.4-254.9
				C666.9,328.4,759.8,455.9,759.8,583.4z"/>
			<g>
				<g>
					<path d="M750.7,387.5c-29.8-47.9-79.6-69.8-117.9-84c-1.8-0.7-4-1.5-6.5-2.3c11.9-4.1,22.6-10.6,32.6-21.1
						c25.9-27.1,41.7-87.6,41.7-126.6c0-39.4-0.7-84.8-27.1-112c-30.7-31.6-90.8-42-140.6-42c-49.8,0-108.7,10.4-139.4,42
						c-26.5,27.2-28.3,72.6-28.3,112c0,88.5,25.9,126.2,63.2,142.2c-5.7,1.9-11.5,4-17.2,6.3c-28.7,11.6-68.4,27.7-95,70.4
						c-26.3,42.2-24.7,85.9-23,104v34c-7.4,28.4-3.3,51.8,8,57c16.7,7.8,44.6-26.3,46-28c29.5-36.6,25.3-85,22-106l161.9-31
						l163.9,30c-5.1,30.4-3,80,13.9,107.6c0.5,0.9,1,1.8,1.7,2.7c23.7,29.7,41.2,25.6,45.4,23.8c-0.5,0.3-1.1,0.8-2,1.4
						c-3.8,3,8.6-4.7,10.5-9.2c5.2-12.1,0-31.8,2.5-45.3c1.5-8.2,3.5-16.9,5-27C772.9,465.9,776.2,428.4,750.7,387.5z"/>
				</g>
				<g>
					<path class="st3" d="M750.7,387.5c-29.8-47.9-79.6-69.8-117.9-84c-1.8-0.7-4-1.5-6.5-2.3c11.9-4.1,22.6-10.6,32.6-21.1
						c25.9-27.1,41.7-87.6,41.7-126.6c0-39.4-0.7-84.8-27.1-112c-30.7-31.6-90.8-42-140.6-42c-49.8,0-108.7,10.4-139.4,42
						c-26.5,27.2-28.3,72.6-28.3,112c0,88.5,25.9,126.2,63.2,142.2c-5.7,1.9-11.5,4-17.2,6.3c-28.7,11.6-68.4,27.7-95,70.4
						c-26.3,42.2-24.7,85.9-23,104v34c-7.4,28.4-3.3,51.8,8,57c16.7,7.8,44.6-26.3,46-28c29.5-36.6,25.3-85,22-106l161.9-31
						l163.9,30c-5.1,30.4-3,80,13.9,107.6c0.5,0.9,1,1.8,1.7,2.7c23.7,29.7,41.2,25.6,45.4,23.8c-0.5,0.3-1.1,0.8-2,1.4
						c-3.8,3,8.6-4.7,10.5-9.2c5.2-12.1,0-31.8,2.5-45.3c1.5-8.2,3.5-16.9,5-27C772.9,465.9,776.2,428.4,750.7,387.5z"/>
				</g>
			</g>
		</g>
		<g>
			<path class="st4" d="M528.5,726.5c0,0-39.9-0.3-47-5.4c-0.8-0.6-1-1.7-0.4-2.5c3.9-5.2,23.4-30.8,30.1-29.2
				c0.2,0,0.3,0.1,0.4,0.2l15.9,9.3c0.6,0.3,1.2,0.3,1.8,0l14.9-8.4c0.1-0.1,0.3-0.1,0.4-0.2c6.7-1.6,27.1,25.6,31.1,31.1
				c0.6,0.8,0.4,2-0.4,2.5C568.1,728.6,528.5,726.5,528.5,726.5z"/>
			<path class="st4" d="M480.5,719.5c4.5-6.4,24.5,13,48.5,13.5c24.2,0.5,43-19.3,47.5-10.5c11.5,22.5-37.7,33.8-49,34
				C515.8,756.7,466,740,480.5,719.5z"/>
		</g>
	</g>
</g>
</svg>
