<?xml version="1.0" encoding="utf-8"?>
<!-- Generator: Adobe Illustrator 21.0.2, SVG Export Plug-In . SVG Version: 6.00 Build 0)  -->
<svg version="1.1" id="Layer_1" xmlns="http://www.w3.org/2000/svg" xmlns:xlink="http://www.w3.org/1999/xlink" x="0px" y="0px"
	 viewBox="0 0 1049 884.6" style="enable-background:new 0 0 1049 884.6;" xml:space="preserve">
<style type="text/css">
	.st0{clip-path:url(#SVGID_2_);}
	.st1{fill:#8C6239;}
	.st2{fill:none;}
	.st3{fill:#663120;stroke:#663120;stroke-width:6;stroke-miterlimit:10;}
	.st4{fill:none;stroke:#663120;stroke-linecap:round;stroke-miterlimit:10;}
	.st5{fill:#D19B6F;}
	.st6{clip-path:url(#SVGID_4_);}
</style>
<title>Artboard 1</title>
<g>
	<g>
		<g>
			<defs>
				<rect id="SVGID_1_" y="-0.3" width="1049" height="885"/>
			</defs>
			<clipPath id="SVGID_2_">
				<use xlink:href="#SVGID_1_"  style="overflow:visible;"/>
			</clipPath>
			<g class="st0">
				<path class="st1" d="M680.9,782.9c0,61.3,25.7,115,73.2,140.9c-30.3,129.6-116.1,267.3-238.2,267.3
					c-118.9,0-207.8-130-242.1-256.3c62.1-19.6,94.1-81,94.1-152c0-22.1-3.1-42.9-9.2-61.8c19.6-12.5,36.3-29.2,48.9-48.8
					c55.1,31.3,122.9,30,176.8-3.3c18,39.9,51.2,69.1,97.7,77.5C681.2,758.3,680.9,770.5,680.9,782.9z"/>
				<g>
					<path class="st2" d="M589.7,436.2c-0.3,0.5-0.5,0.9-0.8,1.4C589.2,437.2,589.5,436.7,589.7,436.2z"/>
					<path class="st2" d="M588.5,438.6c-0.1,0.2-0.2,0.4-0.2,0.5C588.3,439,588.4,438.8,588.5,438.6z"/>
					<path class="st2" d="M649.6,457.2c0.7-0.4,1.5-0.8,2.2-1.2C651.1,456.4,650.4,456.8,649.6,457.2z"/>
					<path class="st2" d="M313.9,655C313.9,655,313.9,655,313.9,655c-20.7,26.9-36,58.4-45.2,92.8l0,0
						C277.9,713.5,293.2,682,313.9,655z"/>
					<path class="st2" d="M663.4,450.2c1.4-0.6,2.8-1.2,4.2-1.8C666.2,449,664.8,449.6,663.4,450.2z"/>
					<path class="st2" d="M350.9,513.8c3.1,0,6.2-0.2,9.2-0.7C357.1,513.6,354,513.8,350.9,513.8
						C350.9,513.8,350.9,513.8,350.9,513.8z"/>
					<path class="st2" d="M350.7,513.8c-6,0-11.9-0.9-17.6-2.7C338.8,513,344.7,513.9,350.7,513.8z"/>
					<path class="st2" d="M361.8,512.8c-0.5,0.1-1,0.2-1.5,0.3C360.7,513,361.3,512.9,361.8,512.8z"/>
					<path class="st2" d="M638.6,463.9L638.6,463.9c-5.4,3.6-10.6,7.6-15.5,11.8C628,471.5,633.1,467.6,638.6,463.9z"/>
					<path class="st2" d="M58,849.5c-1.9-3.1-3.8-6.2-5.5-9.4C54.2,843.3,56,846.5,58,849.5z"/>
					<path class="st2" d="M838.7,634.3C838.7,634.3,838.7,634.3,838.7,634.3c0-0.9,0-1.8,0.1-2.7
						C838.7,632.5,838.7,633.4,838.7,634.3z"/>
					<path class="st2" d="M990,822.2c2.4,0,4.8,0.2,7.2,0.7C994.8,822.4,992.4,822.2,990,822.2c-22.9-0.1-41.5,21.6-41.5,48.4
						c0,0,0,0,0,0C948.5,843.9,967,822.2,990,822.2z"/>
					<path class="st2" d="M846.2,626.6C846.2,626.6,846.2,626.6,846.2,626.6c-2.4,0-4.6,0-6.9,0.1c0,0,0,0,0,0
						C841.6,626.7,843.9,626.6,846.2,626.6z"/>
					<path class="st2" d="M715.8,662.9c17.5,24.5,30.7,51.7,39,80.7c0,0,0.1,0,0.1,0c-8.3-28.9-21.5-56.2-39-80.7
						c23-21.7,60.9-35.3,123.3-36.3c3.9-25.4,27-44.8,55-44.8c1.1-0.1,2.2,0,3.4,0c-1.1-0.1-2.2-0.1-3.4-0.1
						c-27.9,0-51.1,19.5-55,44.9C776.8,627.5,738.8,641.1,715.8,662.9C715.8,662.9,715.8,662.9,715.8,662.9z"/>
					<path class="st2" d="M891.9,632.7L891.9,632.7C891.9,632.7,891.9,632.7,891.9,632.7c9.6,2.6,18.8,6,27.7,10.1
						C910.7,638.6,901.4,635.2,891.9,632.7C891.9,632.6,891.9,632.7,891.9,632.7z"/>
					<path class="st2" d="M125,656.6c-1.4,0.8-2.8,1.6-4.2,2.4C122.2,658.2,123.6,657.4,125,656.6L125,656.6z"/>
					<path class="st2" d="M569.1,602.2c0-0.1,0-0.1,0-0.2C569.1,602.1,569.1,602.2,569.1,602.2z"/>
					<path class="st2" d="M394.7,493.5c-1.4,1.6-2.8,3.1-4.3,4.6C391.9,496.6,393.3,495.1,394.7,493.5z"/>
					<path class="st2" d="M570.7,567.6L570.7,567.6L570.7,567.6c-19.7-4.3-39.9-6.5-60.1-6.5c-27.2-0.2-54.3,3.9-80.4,12
						c-3.7-29.5-16.1-57.3-35.5-79.8c0,0,0,0,0,0c-12.2-14.2-26.6-26.2-42.9-35.5c5.7-9,12.4-17.4,19.7-25c-7.4,7.6-14,16-19.8,25.1
						c0,0,0,0,0.1,0c0,0,0,0.1-0.1,0.1c16.3,9.2,30.9,21.2,43,35.5c19.4,22.5,31.8,50.2,35.5,79.7c0,0,0,0,0,0c0,0,0,0.1,0,0.1
						c26-8.1,53.1-12.2,80.4-12C530.8,561.2,550.9,563.3,570.7,567.6C570.7,567.7,570.7,567.6,570.7,567.6z"/>
					<path class="st2" d="M569,599.7c0-1-0.1-2-0.1-2.9C568.9,597.7,568.9,598.7,569,599.7z"/>
					<path class="st2" d="M568.8,591.5C568.8,591.6,568.8,591.6,568.8,591.5c0,1.7,0,3.3,0.1,4.8
						C568.8,594.8,568.8,593.2,568.8,591.5z"/>
					<path class="st2" d="M67.5,863c-2.3-2.9-4.5-5.9-6.5-8.9C63,857.1,65.2,860.1,67.5,863z"/>
					<path class="st2" d="M754.7,743.7c-14.4,3.5-29.2,5.2-43.9,5.3C725.7,749,740.4,747.2,754.7,743.7
						C754.7,743.7,754.7,743.7,754.7,743.7z"/>
					<path class="st2" d="M710.8,749c-7.4,0-14.8-0.5-22.1-1.5C696,748.6,703.4,749.1,710.8,749z"/>
					<path class="st2" d="M61.7,822.2C61.7,822.2,61.7,822.2,61.7,822.2c23.8,0,43.1,22.1,43.1,49.4c0,4-0.4,8-1.3,11.9
						c0.8-3.9,1.3-7.9,1.3-11.9C104.8,844.3,85.5,822.2,61.7,822.2z"/>
					<path class="st2" d="M103.5,883.5c-0.4,1.9-1,3.9-1.6,5.8C102.6,887.3,103.1,885.4,103.5,883.5z"/>
					<path class="st2" d="M78.5,875.6c-2.6-2.7-5.1-5.5-7.5-8.4C73.4,870.1,75.9,872.9,78.5,875.6z"/>
					<path class="st2" d="M270.3,920.8c-0.7-2.7-1.3-5.5-1.9-8.2C269,915.4,269.6,918.1,270.3,920.8z"/>
					<path class="st2" d="M262.4,880.4c-0.1-0.6-0.2-1.2-0.3-1.8C262.2,879.1,262.3,879.8,262.4,880.4z"/>
					<path class="st2" d="M266.2,747.9c-11.1,0-60.3-19.5-102.2-52.5C205.9,728.4,255,747.9,266.2,747.9
						C266.1,747.9,266.2,747.9,266.2,747.9z"/>
					<path class="st2" d="M161.2,693.1c18.9-9.1,34.3-22.6,34.3-38.5c0-7.4-3.4-14.5-8.8-21.1c0,0,0,0-0.1,0c-1-1.2-2.1-2.4-3.3-3.6
						c1.1,1.1,2.2,2.3,3.2,3.5c5.5,6.6,8.9,13.8,8.9,21.2C195.4,670.4,180,684,161.2,693.1C161.2,693.1,161.2,693.1,161.2,693.1
						c-15.8,7.5-34,11.9-47.9,11.9h0C127.2,705,145.5,700.6,161.2,693.1L161.2,693.1z"/>
					<path class="st3" d="M1003.8,824.9C1003.8,824.9,1003.8,824.9,1003.8,824.9C1003.8,824.9,1003.7,824.9,1003.8,824.9
						c5-13.5,7.7-27.6,7.7-42c0-51.5-26.3-97.2-67.2-125.9c3.6-7.1,5.5-14.8,5.5-22.7c0-27.5-22.3-50.1-50.8-52.5
						c0.2,3.2,0.3,6.5,0.3,9.7c0,0,0,0,0,0.1c0-3.3-0.1-6.5-0.3-9.7c-5.3-81.8-77.1-146.6-165.1-146.7c-14.8,0-29.6,1.9-43.9,5.6
						c-8.4-18.9-28.2-32.2-51.2-32.2c-13.2-0.1-25.9,4.4-36.2,12.7c-2.5,1.9-4.8,4.1-6.9,6.5c-2.3,2.6-4.2,5.4-5.9,8.2
						c3.2-5.6,7.4-10.6,12.8-14.8c-29.1-24.3-67.4-39-109.3-39.2c-39.2-0.1-77.3,13.2-107.8,37.9c0,0,0,0,0.1,0c0,0,0,0-0.1,0.1
						c-9.9-7.5-22.1-11.5-34.6-11.4c-22.2,0-41.4,12.3-50.3,30.1c7.8,1.6,15.6,3.7,23.1,6.4c-7.5-2.6-15.1-4.7-22.9-6.2c0,0,0,0,0,0
						c-11.4-2.3-22.9-3.4-34.5-3.4c-91.3,0-165.3,70-165.3,156.3c0,3.2,0.2,6.3,0.5,9.4c0,0-0.1,0-0.1,0c2.2,20,11,38.6,23.6,55.4
						c-12.6-16.8-21.5-35.3-23.7-55.4c-25,5.2-43.7,26.2-43.7,51.4c0.1,15.7,7.4,30.5,19.8,40.2c0.9-0.9,1.8-1.8,2.7-2.7
						c-0.9,0.8-1.7,1.7-2.6,2.6c10.2,8.1,22.8,12.5,35.8,12.4c-13,0.1-25.6-4.3-35.8-12.3c-24.4,25.2-39.9,56.2-39.9,90.1
						c0.1,14.7,2.9,29.2,8.3,42.8c0,0-0.1,0-0.1,0c-16,7.2-27.3,25.1-27.3,46c0,27.3,19.3,49.4,43.1,49.4
						c16.5,0,30.9-10.6,38.1-26.2c36.5,28.6,84.3,46.5,129.7,46.5c15.1,0.1,30.1-2.1,44.5-6.5c62.1-19.6,94.1-81,94.1-152
						c0-22.1-3.1-43-9.2-61.7c0,0,0.1,0,0.1-0.1c0,0,0,0,0-0.1c19.6-12.5,36.2-29.1,48.8-48.6c-23.4-13.4-43.2-32.4-57.4-55.3
						c0,0,0,0,0,0c14.2,22.9,33.9,41.9,57.3,55.3c16.4-25.7,24.6-55.7,23.5-86c1.1,30.3-7,60.3-23.5,86.1
						c55.1,31.3,122.9,30,176.8-3.3c-1.7-3.8-3.3-7.7-4.7-11.7c1.4,3.9,3,7.8,4.7,11.6c27.4-17.1,49-41.8,61.7-70.9
						c8.2,5.1,16.1,10.6,23.6,16.6c-7.5-6-15.4-11.5-23.6-16.5c-12.6,29.1-34.3,53.7-61.7,70.9c18,39.8,51.2,69,97.6,77.5
						c0,0,0,0,0,0c0,0,0.1,0,0.1,0c-0.9,11.7-1.2,24-1.2,36.4c0,61.4,25.6,115,73.2,140.9c0,0,0,0,0,0
						c19.4,10.5,42.4,16.4,68.8,16.4c46.3,0,94.1-18.2,130-47.5c0,0,0,0.1,0,0.1l0,0c6.9,15.7,20.9,26.4,37,26.4
						c22.9,0,41.5-21.7,41.5-48.5C1031.5,849.5,1019.9,831.6,1003.8,824.9z M990,822.1c2.4,0.1,4.8,0.3,7.2,0.8
						C994.8,822.4,992.4,822.2,990,822.1c-23,0.1-41.5,21.8-41.5,48.5c0,0,0,0,0,0C948.5,843.8,967.1,822.1,990,822.1z M838.7,634.3
						c0-0.9,0-1.8,0.1-2.7C838.7,632.5,838.7,633.4,838.7,634.3C838.7,634.3,838.7,634.3,838.7,634.3z M846.2,626.6
						C846.2,626.6,846.2,626.6,846.2,626.6c-2.3,0-4.6,0.1-6.8,0.1c0,0,0,0,0,0C841.6,626.6,843.9,626.6,846.2,626.6z M919.6,642.8
						c-8.9-4.2-18.1-7.6-27.7-10.1c0,0,0,0,0,0h0c0,0,0-0.1,0-0.1C901.4,635.2,910.7,638.6,919.6,642.8z M839.2,626.6
						c3.9-25.4,27.1-44.9,55-44.9c1.1,0,2.2,0.1,3.4,0.1c-1.1-0.1-2.2-0.1-3.4,0C866.2,581.8,843.2,601.3,839.2,626.6
						c-62.4,1-100.3,14.6-123.3,36.3c17.5,24.5,30.7,51.7,39,80.7c0,0-0.1,0-0.1,0c-8.3-29-21.5-56.2-39-80.7c0,0,0,0,0-0.1
						C738.8,641.1,776.8,627.5,839.2,626.6z M638.6,463.9c-5.4,3.6-10.6,7.6-15.5,11.8C628,471.5,633.1,467.6,638.6,463.9
						L638.6,463.9z M667.6,448.4c-1.4,0.6-2.8,1.2-4.2,1.8C664.8,449.6,666.2,449,667.6,448.4z M651.8,456c-0.7,0.4-1.5,0.8-2.2,1.2
						C650.4,456.8,651.1,456.4,651.8,456z M589,437.6c0.2-0.5,0.5-0.9,0.8-1.4C589.5,436.7,589.2,437.2,589,437.6z M588.2,439.1
						c0.1-0.2,0.2-0.4,0.2-0.5C588.4,438.8,588.3,439,588.2,439.1z M313.9,655C313.9,655,313.9,655,313.9,655
						c-20.7,27-36,58.5-45.2,92.8l0,0C277.9,713.4,293.2,681.9,313.9,655z M350.9,513.8C350.9,513.8,350.9,513.8,350.9,513.8
						c3.1,0,6.2-0.2,9.2-0.7C357.1,513.6,354,513.8,350.9,513.8z M360.2,513.1c0.5-0.1,1-0.2,1.5-0.3
						C361.3,512.9,360.7,513,360.2,513.1z M333.2,511.1c5.7,1.8,11.6,2.7,17.6,2.7C344.7,513.9,338.8,513,333.2,511.1z M125,656.6
						L125,656.6c-1.4,0.8-2.8,1.6-4.2,2.4C122.2,658.2,123.6,657.4,125,656.6z M52.5,840.2c1.7,3.2,3.5,6.3,5.5,9.4
						C56,846.5,54.2,843.3,52.5,840.2z M61,854.1c2.1,3,4.2,6,6.5,8.9C65.2,860.1,63,857.1,61,854.1z M71,867.3
						c2.4,2.8,4.9,5.6,7.5,8.4C75.9,872.9,73.4,870.1,71,867.3z M103.5,883.5c-0.4,1.9-1,3.9-1.6,5.8
						C102.6,887.3,103.1,885.4,103.5,883.5c0.8-3.9,1.3-7.9,1.3-11.9c0-27.3-19.3-49.4-43.2-49.4c0,0,0,0,0.1,0
						c23.8,0,43.1,22.1,43.1,49.4C104.8,875.6,104.4,879.6,103.5,883.5z M113.3,705c13.9,0,32.1-4.4,47.9-11.9c0,0,0,0,0,0
						c18.9-9.1,34.2-22.7,34.2-38.5c0-7.4-3.4-14.6-8.9-21.2c-1-1.2-2.1-2.4-3.2-3.5c1.2,1.2,2.3,2.4,3.3,3.6c0,0,0,0,0.1,0
						c5.5,6.6,8.8,13.7,8.8,21.1c0,15.9-15.4,29.4-34.3,38.5l0,0C145.5,700.6,127.2,705,113.3,705L113.3,705z M164,695.4
						c41.8,33,91,52.5,102.2,52.5c0,0-0.1,0-0.1,0C255,747.9,205.9,728.4,164,695.4z M262.1,878.5c0.1,0.6,0.2,1.2,0.3,1.8
						C262.3,879.8,262.2,879.1,262.1,878.5z M268.4,912.6c0.6,2.7,1.2,5.5,1.9,8.2C269.6,918.1,269,915.4,268.4,912.6z M430.2,573.3
						C430.2,573.3,430.2,573.2,430.2,573.3C430.2,573.2,430.2,573.2,430.2,573.3c-3.7-29.6-16.1-57.3-35.5-79.8
						c-1.4,1.6-2.8,3.1-4.3,4.6c1.5-1.4,2.9-3,4.3-4.6c-12.1-14.3-26.7-26.3-43-35.5c0,0,0-0.1,0.1-0.1c0,0,0,0-0.1,0
						c5.8-9,12.4-17.4,19.8-25.1c-7.4,7.6-14,16-19.7,25c16.3,9.3,30.7,21.3,42.9,35.5c0,0,0,0,0,0c19.4,22.5,31.8,50.3,35.5,79.8
						c26.1-8.1,53.2-12.2,80.4-12c20.2,0,40.4,2.2,60.1,6.5v0h0c0,0,0,0.1,0,0.1c-19.8-4.4-39.9-6.5-60.1-6.4
						C483.3,561.1,456.2,565.2,430.2,573.3z M568.8,591.5c0,1.6,0,3.2,0.1,4.8C568.8,594.8,568.8,593.2,568.8,591.5
						C568.8,591.6,568.8,591.6,568.8,591.5z M569.1,602c0,0.1,0,0.1,0,0.2C569.1,602.2,569.1,602.1,569.1,602z M568.9,596.8
						c0,1,0.1,2,0.1,2.9C568.9,598.7,568.9,597.7,568.9,596.8z M710.8,749c-7.4,0.1-14.8-0.4-22.1-1.5
						C696,748.5,703.4,749,710.8,749c14.8-0.1,29.6-1.8,43.9-5.3c0,0,0,0,0,0C740.4,747.2,725.7,749,710.8,749z"/>
				</g>
				<path class="st4" d="M899,581.9c28.5,2.3,50.8,24.9,50.8,52.4c0,7.9-1.9,15.7-5.5,22.8"/>
				<path class="st4" d="M944.3,657.1c40.8,28.5,67.2,74.2,67.2,125.8c0,14.4-2.7,28.6-7.8,42"/>
				<path class="st4" d="M385.5,420c30.5-24.7,68.6-38,107.8-37.9c41.9,0,80.1,14.7,109.3,39"/>
				<path class="st4" d="M45.8,825.6c-5.4-13.6-8.2-28.1-8.3-42.8c0-33.9,15.5-64.9,39.9-90.1"/>
				<path class="st4" d="M602.6,421.2c10.3-8.3,23-12.7,36.2-12.7c23.1,0,42.9,13.3,51.3,32.3"/>
				<path class="st4" d="M300.6,438.7c8.9-17.8,28.1-30.1,50.3-30.1c12.5-0.1,24.7,4,34.7,11.4"/>
				<path class="st4" d="M77.4,692.7C65,683,57.7,668.2,57.6,652.5c0-25.2,18.7-46.2,43.8-51.4"/>
				<path class="st4" d="M99.7,894.8C92.5,910.4,78.1,921,61.6,921c-23.8,0-43.1-22.1-43.1-49.4c0-20.9,11.3-38.7,27.3-46"/>
				<path class="st4" d="M1003.7,824.9c16.2,6.6,27.8,24.6,27.8,45.8c0,26.8-18.6,48.5-41.5,48.5c-16.1,0-30.1-10.7-37-26.4"/>
				<path class="st5" d="M641.5,199.6c-8.1,9.8-15.8,20-24.3,29.4c-6.5,7.2-13.6,13.7-21.2,19.7c-7.3,5.6-13.8,2.6-19.3-3.9
					c-5-5.9-0.8-10.8,1.7-15.4c3-5.5,7.4-10.2,10.6-15.6c4.5-7.4-9.3,16.8-21.4,22.2c-4.1,1.9-12.1-5.1-12.2-8
					c-0.2-3.6,17.9-31.2,22.9-38.2c0.3-0.5,0.7-0.9,1.1-1.2c4.3-4,26.3-23.5,33.7-29.2c8.6-6.6,17.2-13.2,26.6-18.6
					c11.1-6.4,23.1-11.4,34.5-17.4c7.2-3.8,14.3-4.2,21.5-1c6.6,2.8,13,6,19.3,9.4c11,6.2,22.5,8.6,34.8,5.1
					c15-4.3,29.4-2.7,43.8,2.8c30.5,11.6,61,23.4,91.7,34.5c49.3,17.9,101.1,23.1,152.8,27.4c16,1.3,30.1,4.1,42.6,15
					c9.2,8,19.5,14.7,30.1,22.3c1.7,1.2,2.1,3.5,0.8,5.2l0,0l-15.9,21.8c-11.8,16.2-24,32.2-35.3,48.8c-4.3,6.4-8.4,7.1-14.8,4.2
					c-14.9-6.7-30-12.9-45-19.5c-20.2-9-41-11.5-62.1-4.5c-25.7,8.5-52.9,11.6-79.8,9c-18.2-1.7-36,1.9-51.4,11.4
					c-31.4,19.5-67,25.9-101.6,35.7c-4.4,1.2-9,2.1-13.5,2.9c-12.1,2.2-18-5-16.1-17.3c2.1-13.6,9.5-22.8,20.1-30.6
					c13.5-9.9,27.6-18.2,44.1-22.5s32.3-10.3,44.5-23c7-7.3,11.3-14.7,5.7-25.2c-4.4-8.3-7.2-17.4-11.9-25.6
					c-1.5-2.7-6.2-4.5-9.8-5.1c-12.9-2.4-25.9-4.2-38.8-5.9c-2.3-0.3-4.8,0.7-7.2,1.4c-9,2.5-17.9,5.6-27,7.5
					c-8.4,1.8-12.4,7.5-15.9,14.4c-5,10-10.5,19.7-15.3,29.8c-2.8,5.9-4,12.5-6.6,18.5c-4.1,9.4-8.3,18.7-13.2,27.7
					c-3.2,5.9-9,6.3-15.1,5c-3.9-0.8-6.2-2.2-5.1-6.6c0.8-3.1,1.2-6.3,1.1-9.5c-1.3-29,3.9-56.6,17-82.7c0.2-0.3,0.2-0.7,0.3-1
					C643.3,201.7,642.7,200.4,641.5,199.6L641.5,199.6z"/>
				<g id="Layer_2">
					<g>
						<defs>
							<path id="SVGID_3_" d="M641.5,199.6c-8.1,9.8-15.8,20-24.3,29.4c-6.5,7.2-13.6,13.7-21.2,19.7c-7.3,5.6-13.8,2.6-19.3-3.9
								c-5-5.9-0.8-10.8,1.7-15.4c3-5.5,7.4-10.2,10.6-15.6c4.5-7.4-9.3,16.8-21.4,22.2c-4.1,1.9-12.1-5.1-12.2-8
								c-0.2-3.6,17.9-31.2,22.9-38.2c0.3-0.5,0.7-0.9,1.1-1.2c4.3-4,26.3-23.5,33.7-29.2c8.6-6.6,17.2-13.2,26.6-18.6
								c11.1-6.4,23.1-11.4,34.5-17.4c7.2-3.8,14.3-4.2,21.5-1c6.6,2.8,13,6,19.3,9.4c11,6.2,22.5,8.6,34.8,5.1
								c15-4.3,29.4-2.7,43.8,2.8c30.5,11.6,61,23.4,91.7,34.5c49.3,17.9,101.1,23.1,152.8,27.4c16,1.3,30.1,4.1,42.6,15
								c9.2,8,19.5,14.7,30.1,22.3c1.7,1.2,2.1,3.5,0.8,5.2l0,0l-15.9,21.8c-11.8,16.2-24,32.2-35.3,48.8c-4.3,6.4-8.4,7.1-14.8,4.2
								c-14.9-6.7-30-12.9-45-19.5c-20.2-9-41-11.5-62.1-4.5c-25.7,8.5-52.9,11.6-79.8,9c-18.2-1.7-36,1.9-51.4,11.4
								c-31.4,19.5-67,25.9-101.6,35.7c-4.4,1.2-9,2.1-13.5,2.9c-12.1,2.2-18-5-16.1-17.3c2.1-13.6,9.5-22.8,20.1-30.6
								c13.5-9.9,27.6-18.2,44.1-22.5s32.3-10.3,44.5-23c7-7.3,11.3-14.7,5.7-25.2c-4.4-8.3-7.2-17.4-11.9-25.6
								c-1.5-2.7-6.2-4.5-9.8-5.1c-12.9-2.4-25.9-4.2-38.8-5.9c-2.3-0.3-4.8,0.7-7.2,1.4c-9,2.5-17.9,5.6-27,7.5
								c-8.4,1.8-12.4,7.5-15.9,14.4c-5,10-10.5,19.7-15.3,29.8c-2.8,5.9-4,12.5-6.6,18.5c-4.1,9.4-8.3,18.7-13.2,27.7
								c-3.2,5.9-9,6.3-15.1,5c-3.9-0.8-6.2-2.2-5.1-6.6c0.8-3.1,1.2-6.3,1.1-9.5c-1.3-29,3.9-56.6,17-82.7c0.2-0.3,0.2-0.7,0.3-1
								C643.3,201.7,642.7,200.4,641.5,199.6L641.5,199.6z"/>
						</defs>
						<clipPath id="SVGID_4_">
							<use xlink:href="#SVGID_3_"  style="overflow:visible;"/>
						</clipPath>
						<g class="st6">
							<path class="st5" d="M907.5,518.8L489.9,214.1L718.4-99.2l417.7,304.7L907.5,518.8z"/>
						</g>
					</g>
				</g>
			</g>
		</g>
	</g>
</g>
</svg>
