<?xml version="1.0" encoding="utf-8"?>
<!-- Generator: Adobe Illustrator 21.0.2, SVG Export Plug-In . SVG Version: 6.00 Build 0)  -->
<svg version="1.1" id="Layer_1" xmlns="http://www.w3.org/2000/svg" xmlns:xlink="http://www.w3.org/1999/xlink" x="0px" y="0px"
	 viewBox="0 0 1280 800" style="enable-background:new 0 0 1280 800;" xml:space="preserve">
<style type="text/css">
	.st0{fill:none;stroke:#000000;stroke-width:4;stroke-miterlimit:10;}
</style>
<g>
	<g>
		<path class="st0" d="M409.1,395c35-10,70-36.3,80.4-58c5.9-12.4,4.5-20.9-7-29.4c-13.6-10-26.7-21.2-38.5-33.2
			c-52.4-53.5-51.8-125,1.5-177.5c41.3-40.7,92.7-62.2,148.5-72.9C676.7,8,756.6,17.3,832.4,55.3c27.8,14,52,32.7,70.4,58.2
			c30.7,42.7,32.4,93.6,4.4,138.1c-17,27.1-40.3,47.4-68.1,62.8c-64,35.4-133,45.8-204.9,39.6c-19.6-1.7-38.9-6.6-58.5-8.4
			c-7.6-0.7-16.6,1.1-23.3,4.8c-26.7,15.1-50,38.5-79.4,47.5C460.1,402,448.1,404,409.1,395z"/>
	</g>
</g>
</svg>
